<svg version="1.1" id="Layer_1" xmlns="http://www.w3.org/2000/svg" xmlns:xlink="http://www.w3.org/1999/xlink" x="0px" y="0px"
	 width="100%" viewBox="0 0 224 224" enable-background="new 0 0 224 224" xml:space="preserve">
<path fill="#ffffff" opacity="1.000000" stroke="none" 
	d="
M162.051773,134.566223 
	C158.234024,144.385284 157.191223,155.816833 146.610336,160.615051 
	C131.200012,167.603348 114.957268,170.734436 98.083862,166.576141 
	C92.212738,165.129272 87.635689,161.412704 84.656555,156.091599 
	C79.120171,146.202927 74.445312,135.930618 71.422073,124.960747 
	C70.835007,122.830551 70.728798,120.683632 70.954544,118.526711 
	C71.475853,113.545761 75.243690,110.061646 79.856491,110.194290 
	C84.280762,110.321518 87.514793,113.685997 88.158524,118.604874 
	C89.514671,128.967331 93.213676,138.255646 101.426414,145.129333 
	C108.630257,151.158615 117.380775,150.588562 125.729378,149.294296 
	C139.815262,147.110611 145.749786,139.440735 145.726044,125.042900 
	C145.722198,122.712624 145.594620,120.377052 145.710770,118.053246 
	C145.946991,113.326767 149.017883,109.917625 153.272095,109.621025 
	C158.073761,109.286263 160.822281,111.962975 161.912476,116.266907 
	C163.407349,122.168472 162.343140,128.182648 162.051773,134.566223 
z"/>
<path fill="#ffffff" opacity="1.000000" stroke="none" 
	d="
M68.854271,78.101479 
	C71.632301,73.443420 75.597229,72.806580 79.893120,74.222366 
	C83.398018,75.377472 85.221703,78.298576 85.067940,81.966324 
	C84.893356,86.130577 82.267540,88.624268 78.419411,89.763878 
	C72.053444,91.649124 66.978310,85.714409 68.854271,78.101479 
z"/>
<path fill="#ffffff" opacity="1.000000" stroke="none" 
	d="
M133.058075,71.599007 
	C137.930695,69.850044 141.648575,70.840019 144.120590,75.060593 
	C146.152512,78.529778 145.429382,81.856697 142.778580,84.674080 
	C139.317673,88.352493 133.723358,88.071777 130.430176,84.216019 
	C127.211357,80.447334 128.116135,75.489235 133.058075,71.599007 
z"/>
</svg>