<svg width="35" height="32" viewBox="0 0 35 32" fill="none" xmlns="http://www.w3.org/2000/svg">
<path d="M14.8571 0C17.3819 0 19.4286 2.0467 19.4286 4.57143C19.4286 7.09616 17.3819 9.14286 14.8571 9.14286C14.7422 9.14286 14.6284 9.13861 14.5156 9.13025C12.9826 9.01667 11.2278 8.97827 10.1286 10.0529C8.9993 11.1571 9.02898 12.9764 9.13285 14.5524C9.13949 14.6531 9.14286 14.7547 9.14286 14.8571C9.14286 17.3819 7.09616 19.4286 4.57143 19.4286C2.0467 19.4286 0 17.3819 0 14.8571C0 12.3324 2.0467 10.2857 4.57143 10.2857C6.02162 10.2857 7.63777 10.2251 8.67443 9.21096L9.16035 8.73563C10.2156 7.70334 10.2857 6.04763 10.2857 4.57143C10.2857 2.0467 12.3324 0 14.8571 0Z" fill="#105AB3"/>
<path d="M29.7143 12.5714C32.2391 12.5714 34.2858 14.6181 34.2858 17.1429C34.2858 19.6676 32.2391 21.7143 29.7143 21.7143C29.6064 21.7143 29.4994 21.7105 29.3934 21.7032C27.857 21.5963 26.0999 21.5605 24.9987 22.6372C23.8672 23.7435 23.8943 25.5651 23.9913 27.1446C23.9971 27.2385 24 27.3332 24 27.4286C24 29.9533 21.9533 32 19.4286 32C16.9039 32 14.8572 29.9533 14.8572 27.4286C14.8572 24.9038 16.9039 22.8571 19.4286 22.8571C20.8883 22.8571 22.5169 22.7995 23.5604 21.7789L24.0141 21.3353C25.0762 20.2966 25.1429 18.6285 25.1429 17.1429C25.1429 14.6181 27.1896 12.5714 29.7143 12.5714Z" fill="#30B2F4"/>
<path d="M27.4285 1.14285C29.9532 1.14285 31.9999 3.18955 31.9999 5.71428C31.9999 8.23901 29.9532 10.2857 27.4285 10.2857C27.3801 10.2857 27.3319 10.285 27.2839 10.2835C25.7182 10.2346 23.9377 10.2221 22.8188 11.3185C21.6715 12.4428 21.6747 14.2834 21.7129 15.8893C21.7138 15.9261 21.7142 15.963 21.7142 16C21.7142 18.5247 19.6675 20.5714 17.1428 20.5714C17.0364 20.5714 16.931 20.5678 16.8265 20.5606C15.2877 20.4551 13.5274 20.4199 12.4255 21.4992C11.2957 22.6058 11.3235 24.4253 11.4199 26.0039C11.4256 26.0971 11.4285 26.1911 11.4285 26.2857C11.4285 28.8104 9.3818 30.8571 6.85707 30.8571C4.33234 30.8571 2.28564 28.8104 2.28564 26.2857C2.28564 23.761 4.33234 21.7143 6.85707 21.7143C8.31986 21.7143 9.95273 21.657 10.9977 20.6334L11.4441 20.1961C12.5061 19.1558 12.5714 17.4866 12.5714 16C12.5714 13.4753 14.6181 11.4286 17.1428 11.4286C18.6843 11.4286 20.4212 11.4018 21.5226 10.3232L21.7023 10.1473C22.8199 9.05278 22.8571 7.27858 22.8571 5.71428C22.8571 3.18955 24.9038 1.14285 27.4285 1.14285Z" fill="#2593EC"/>
</svg>
